#!OML:ASF I:\golf\golf\golf 2\Subject 1\2002-09-07\Subject1.ASF
:FULLY-SPECIFIED
:DEGREES
264
root -0.910827 16.597 -3.7408 78.6659 29.5179 15.6869
lowerback 22.0392 3.33443 6.57837
upperback 14.0167 5.67563 8.54475
thorax 2.90624 2.87589 4.45903
lowerneck -9.30806 -9.589 -1.58523
upperneck -4.74817 -12.9406 0.864986
head 0.184744 -6.57762 0.13623
rclavicle -3.81667e-014 -4.45278e-014
rhumerus 65.5607 -21.2067 -53.804
rradius 20.5577
rwrist 2.58609
rhand -46.564 27.6076
rfingers 7.12502
rthumb -19.2881 -1.45585
lclavicle -3.81667e-014 -4.45278e-014
lhumerus 0.621862 -57.5769 93.0072
lradius 88.5684
lwrist 98.8201
lhand 29.8896 69.1893
lfingers 7.12502
lthumb 53.6077 -271.711
rfemur -109.449 -11.0094 24.5248
rtibia 49.0754
rfoot -5.99213 -6.35314
rtoes 19.3831
lfemur -74.2394 -4.15042 -5.4436
ltibia 27.6216
lfoot -11.8763 -11.5362
ltoes -16.3208
265
root -0.912205 16.592 -3.72516 78.8536 29.6081 15.7652
lowerback 22.0248 3.30637 6.61565
upperback 14.0104 5.64835 8.56727
thorax 2.90924 2.86411 4.46896
lowerneck -9.24209 -9.60549 -1.63652
upperneck -4.87431 -12.9614 0.943432
head 0.143528 -6.58808 0.173679
rclavicle 8.90555e-014 1.00187e-013
rhumerus 65.8454 -21.3125 -54.1464
rradius 20.3872
rwrist 3.17363
rhand -46.8228 27.8454
rfingers 7.12502
rthumb -19.5369 -1.19301
lclavicle 8.90555e-014 1.00187e-013
lhumerus 0.479023 -57.3703 93.1171
lradius 88.4367
lwrist 99.4608
lhand 28.6862 69.6037
lfingers 7.12502
lthumb 52.522 -270.606
rfemur -109.615 -11.0496 24.7011
rtibia 49.1555
rfoot -6.12201 -6.36454
rtoes 19.2493
lfemur -74.2889 -4.07889 -5.49199
ltibia 27.4383
lfoot -11.7377 -11.6946
ltoes -16.5235
266
root -0.912039 16.5888 -3.71123 79.1045 29.5594 15.9071
lowerback 21.9629 3.2899 6.53017
upperback 14.0102 5.60879 8.55349
thorax 2.93246 2.84143 4.5123
lowerneck -9.22253 -9.60922 -1.68249
upperneck -5.0044 -12.965 1.01676
head 0.10777 -6.59016 0.207045
rclavicle 3.18055e-015 1.08139e-013
rhumerus 66.0886 -21.4084 -54.3721
rradius 20.2869
rwrist 3.70158
rhand -47.128 27.8106
rfingers 7.12502
rthumb -19.8303 -1.19771
lclavicle 3.18055e-015 1.08139e-013
lhumerus 0.467304 -57.2373 93.1114
lradius 88.3374
lwrist 100.004
lhand 27.7833 69.7055
lfingers 7.12502
lthumb 51.7034 -270.014
rfemur -109.795 -11.1315 24.6229
rtibia 49.2125
rfoot -6.2364 -6.44559
rtoes 19.1993
lfemur -74.3914 -4.10214 -5.60365
ltibia 27.2744
lfoot -11.4426 -11.8149
ltoes -15.1452
267
root -0.912566 16.5879 -3.69745 79.3142 29.5174 16.0336
lowerback 21.9511 3.28267 6.4499
upperback 13.9942 5.58805 8.54496
thorax 2.91247 2.82724 4.55036
lowerneck -9.23892 -9.60108 -1.69909
upperneck -5.02217 -12.9524 1.04436
head 0.10776 -6.58371 0.217572
rclavicle 2.8625e-014 -4.92986e-014
rhumerus 66.2169 -21.447 -54.4396
rradius 20.2418
rwrist 3.98021
rhand -47.4771 28.1573
rfingers 7.12502
rthumb -20.1659 -0.816031
lclavicle 2.8625e-014 -4.92986e-014
lhumerus 0.404598 -57.2676 93.1383
lradius 88.3324
lwrist 99.9685
lhand 27.7512 69.1708
lfingers 7.12502
lthumb 51.6743 -270.532
rfemur -109.92 -11.1988 24.5194
rtibia 49.2469
rfoot -6.28263 -6.49553
rtoes 19.2231
lfemur -74.483 -4.14592 -5.65569
ltibia 27.1367
lfoot -11.1146 -11.9492
ltoes -13.1617
268
root -0.913723 16.5867 -3.68374 79.4133 29.6235 16.0794
lowerback 22.0087 3.27386 6.50784
upperback 13.9647 5.59695 8.57476
thorax 2.85398 2.83283 4.54333
lowerneck -9.16293 -9.58203 -1.6459
upperneck -5.10641 -12.9357 1.00663
head 0.063004 -6.57676 0.206536
rclavicle -4.13472e-014 -1.59028e-015
rhumerus 66.294 -21.4938 -54.5906
rradius 20.2407
rwrist 4.22586
rhand -47.726 28.7288
rfingers 7.12502
rthumb -20.4051 -0.219057
lclavicle -4.13472e-014 -1.59028e-015
lhumerus 0.198382 -57.7551 93.2524
lradius 88.5295
lwrist 98.4171
lhand 29.6677 67.344
lfingers 7.12502
lthumb 53.4079 -273.425
rfemur -109.961 -11.2139 24.644
rtibia 49.2602
rfoot -6.32887 -6.48587
rtoes 19.153
lfemur -74.5178 -4.10123 -5.61947
ltibia 27.0403
lfoot -10.8593 -12.1849
ltoes -11.9663
269
root -0.915427 16.5862 -3.67022 79.4609 29.7578 16.0596
lowerback 22.0562 3.26892 6.59073
upperback 13.9601 5.61116 8.60352
thorax 2.83143 2.84265 4.52321
lowerneck -9.04495 -9.58677 -1.63974
upperneck -5.23764 -12.9479 1.01353
head 0.00337891 -6.58377 0.218171
rclavicle -1.27222e-014 4.13472e-014
rhumerus 66.3079 -21.5306 -54.6368
rradius 20.3055
rwrist 4.46645
rhand -48.1021 29.0375
rfingers 7.12502
rthumb -20.7665 0.128694
lclavicle -1.27222e-014 4.13472e-014
lhumerus -0.0145217 -57.6261 93.4179
lradius 88.4941
lwrist 98.8019
lhand 28.9232 67.2847
lfingers 7.12502
lthumb 52.7363 -273.057
rfemur -109.972 -11.1752 24.8352
rtibia 49.2472
rfoot -6.39014 -6.48357
rtoes 19.031
lfemur -74.5422 -3.9801 -5.59135
ltibia 27.0295
lfoot -10.9327 -12.3367
ltoes -12.6837
270
root -0.917142 16.5895 -3.6568 79.5327 29.7951 16.0568
lowerback 22.023 3.31511 6.56335
upperback 13.9881 5.65925 8.63703
thorax 2.87157 2.86321 4.5699
lowerneck -8.96694 -9.61193 -1.66391
upperneck -5.31428 -12.9824 1.06542
head -0.0274109 -6.60129 0.242437
rclavicle 6.36111e-014 4.45278e-014
rhumerus 66.2795 -21.6345 -54.5696
rradius 20.3897
rwrist 4.60672
rhand -48.3903 29.1088
rfingers 7.12502
rthumb -21.0434 0.23054
lclavicle 6.36111e-014 4.45278e-014
lhumerus -0.202732 -57.936 93.6157
lradius 88.5822
lwrist 97.8892
lhand 29.9486 65.8918
lfingers 7.12502
lthumb 53.6607 -275.043
rfemur -109.989 -11.1427 24.879
rtibia 49.2414
rfoot -6.47178 -6.52801
rtoes 19.0331
lfemur -74.5402 -3.9219 -5.55913
ltibia 27.0705
lfoot -11.3255 -12.2439
ltoes -14.6243
271
root -0.917584 16.5943 -3.64429 79.6663 29.7763 16.1006
lowerback 21.8978 3.34856 6.51942
upperback 14.0221 5.67815 8.65382
thorax 2.96455 2.87031 4.61958
lowerneck -9.03118 -9.62751 -1.73848
upperneck -5.25368 -12.9932 1.12179
head 0.0105981 -6.60528 0.263563
rclavicle 1.90833e-014 -1.43125e-014
rhumerus 66.1615 -21.6738 -54.2948
rradius 20.5163
rwrist 4.4853
rhand -48.4516 28.9196
rfingers 7.12502
rthumb -21.1023 0.0479388
lclavicle 1.90833e-014 -1.43125e-014
lhumerus -0.189195 -57.9692 93.643
lradius 88.4983
lwrist 98.1316
lhand 29.5895 65.6513
lfingers 7.12502
lthumb 53.3375 -275.072
rfemur -110.054 -11.1471 24.8304
rtibia 49.278
rfoot -6.61683 -6.59328
rtoes 19.4462
lfemur -74.5315 -3.92259 -5.54048
ltibia 27.0921
lfoot -11.5249 -12.072
ltoes -15.9259
272
root -0.914674 16.5884 -3.63399 79.8788 29.7456 16.2609
lowerback 21.754 3.33936 6.48735
upperback 14.0185 5.64877 8.66729
thorax 3.02756 2.85514 4.66652
lowerneck -9.02808 -9.66679 -1.84165
upperneck -5.2605 -13.0363 1.18431
head 0.0194888 -6.6254 0.295568
rclavicle 1.11319e-013 -7.95139e-014
rhumerus 65.919 -21.6429 -53.7714
rradius 20.6895
rwrist 4.20098
rhand -48.4855 28.6242
rfingers 7.12502
rthumb -21.1349 -0.243882
lclavicle 1.11319e-013 -7.95139e-014
lhumerus -0.0960477 -57.929 93.596
lradius 88.3985
lwrist 98.7785
lhand 28.7532 65.6261
lfingers 7.12502
lthumb 52.5826 -274.621
rfemur -110.181 -11.2513 24.6257
rtibia 49.3632
rfoot -6.7342 -6.76552
rtoes 19.8399
lfemur -74.6822 -3.9566 -5.6988
ltibia 27.0937
lfoot -11.3118 -12.1766
ltoes -16.0241
